<?xml version="1.0" encoding="UTF-8"?>
<svg xmlns="http://www.w3.org/2000/svg" id="Ebene_2" data-name="Ebene 2" viewBox="0 0 208.29 28.83">
  <defs>
    <style>
      .cls-1 {
        fill: #27348b;
      }

      .cls-1, .cls-2, .cls-3, .cls-4, .cls-5 {
        stroke-width: 0px;
      }

      .cls-2 {
        fill: #95c11f;
      }

      .cls-3 {
        fill: #0bbbef;
      }

      .cls-4 {
        fill: #afca0b;
      }

      .cls-5 {
        fill: #fff;
      }
    </style>
  </defs>
  <g id="Logos">
    <g>
      <g>
        <rect class="cls-1" x="17.82" width="169.9" height="20.33"></rect>
        <polygon class="cls-1" points="23.05 24.08 23.67 24.08 23.67 28.14 25.99 28.14 25.99 28.69 23.05 28.69 23.05 24.08"></polygon>
        <path class="cls-1" d="M29.31,26.8l-.7-2.04-.74,2.04h1.44ZM28.28,24.08h.71l1.67,4.61h-.68l-.47-1.38h-1.82l-.5,1.38h-.64l1.74-4.61Z"></path>
        <polygon class="cls-1" points="31.55 24.08 32.29 24.08 34.59 27.81 34.59 24.08 35.18 24.08 35.18 28.69 34.48 28.69 32.15 24.97 32.15 28.69 31.55 28.69 31.55 24.08"></polygon>
        <path class="cls-1" d="M38.26,28.16c.21,0,.38-.02.51-.07.24-.08.43-.24.58-.47.12-.19.21-.42.26-.71.03-.17.05-.34.05-.48,0-.57-.11-1.01-.33-1.33-.22-.32-.58-.47-1.07-.47h-1.08v3.54h1.09ZM36.54,24.08h1.84c.62,0,1.11.23,1.45.67.31.41.46.93.46,1.56,0,.49-.09.93-.27,1.33-.32.7-.87,1.05-1.65,1.05h-1.84v-4.61Z"></path>
        <polygon class="cls-1" points="41.54 24.08 44.88 24.08 44.88 24.65 42.14 24.65 42.14 26.05 44.67 26.05 44.67 26.58 42.14 26.58 42.14 28.14 44.93 28.14 44.93 28.69 41.54 28.69 41.54 24.08"></polygon>
        <path class="cls-1" d="M46.49,27.2c.01.26.07.47.18.64.2.31.55.46,1.06.46.22,0,.43-.03.62-.1.36-.13.54-.36.54-.7,0-.25-.08-.43-.23-.54-.15-.1-.39-.2-.72-.27l-.6-.14c-.4-.09-.67-.19-.84-.3-.28-.19-.42-.48-.42-.86,0-.41.14-.75.42-1.02.28-.27.67-.4,1.18-.4.47,0,.87.12,1.2.35s.49.61.49,1.12h-.59c-.03-.25-.09-.44-.19-.57-.18-.24-.49-.36-.93-.36-.35,0-.61.08-.76.23-.15.15-.23.33-.23.54,0,.22.09.39.27.49.12.07.39.15.81.25l.63.15c.3.07.54.17.7.29.28.22.43.53.43.94,0,.51-.18.88-.54,1.1-.36.22-.78.33-1.26.33-.56,0-1-.15-1.31-.44-.32-.29-.47-.68-.47-1.18h.59Z"></path>
        <polygon class="cls-1" points="50.71 24.08 51.34 24.08 51.34 25.99 53.71 25.99 53.71 24.08 54.34 24.08 54.34 28.69 53.71 28.69 53.71 26.54 51.34 26.54 51.34 28.69 50.71 28.69 50.71 24.08"></polygon>
        <path class="cls-1" d="M58.02,26.8l-.7-2.04-.74,2.04h1.44ZM56.99,24.08h.71l1.67,4.61h-.68l-.47-1.38h-1.82l-.5,1.38h-.64l1.74-4.61Z"></path>
        <g>
          <path class="cls-1" d="M60.94,24.08v2.85c0,.34.06.61.19.84.19.33.5.5.95.5.53,0,.89-.18,1.09-.54.1-.2.15-.46.15-.79v-2.85h.63v2.59c0,.57-.08,1-.23,1.31-.28.56-.81.83-1.59.83s-1.31-.28-1.59-.83c-.15-.31-.23-.74-.23-1.31v-2.59h.63Z"></path>
          <path class="cls-1" d="M67.71,24.72c-.14-.07-.33-.1-.56-.1h-1.23v1.6h1.23c.28,0,.5-.06.68-.18.17-.12.26-.33.26-.63,0-.34-.12-.57-.37-.69M65.28,24.08h2.06c.41,0,.74.12.99.35.25.23.38.56.38.98,0,.36-.11.67-.34.94-.22.27-.57.4-1.03.4h-1.44v1.95h-.62v-4.61Z"></path>
        </g>
        <polygon class="cls-1" points="73.18 24.08 73.18 24.63 71.63 24.63 71.63 28.69 71 28.69 71 24.63 69.44 24.63 69.44 24.08 73.18 24.08"></polygon>
        <path class="cls-1" d="M74.48,27.2c.01.26.07.47.18.64.2.31.55.46,1.06.46.22,0,.43-.03.62-.1.36-.13.54-.36.54-.7,0-.25-.08-.43-.23-.54-.15-.1-.39-.2-.72-.27l-.6-.14c-.4-.09-.68-.19-.84-.3-.28-.19-.42-.48-.42-.86,0-.41.14-.75.42-1.02.28-.27.67-.4,1.18-.4.47,0,.87.12,1.2.35.33.23.49.61.49,1.12h-.59c-.03-.25-.09-.44-.19-.57-.18-.24-.49-.36-.93-.36-.35,0-.61.08-.76.23-.15.15-.23.33-.23.54,0,.22.09.39.27.49.12.07.39.15.81.25l.63.15c.3.07.54.17.7.29.28.22.43.53.43.94,0,.51-.18.88-.54,1.1-.36.22-.78.33-1.26.33-.56,0-1-.15-1.31-.44-.32-.29-.47-.68-.46-1.18h.59Z"></path>
        <polygon class="cls-1" points="82.04 24.08 82.04 24.63 80.48 24.63 80.48 28.69 79.85 28.69 79.85 24.63 78.3 24.63 78.3 24.08 82.04 24.08"></polygon>
        <path class="cls-1" d="M84.82,26.8l-.7-2.04-.74,2.04h1.44ZM83.8,24.08h.71l1.67,4.61h-.68l-.47-1.38h-1.82l-.5,1.38h-.64l1.74-4.61Z"></path>
        <path class="cls-1" d="M88.81,28.16c.21,0,.38-.02.51-.07.24-.08.43-.24.58-.47.12-.19.21-.42.26-.71.03-.17.05-.34.05-.48,0-.57-.11-1.01-.33-1.33-.22-.32-.58-.47-1.07-.47h-1.08v3.54h1.09ZM87.09,24.08h1.84c.62,0,1.11.23,1.45.67.31.41.46.93.46,1.56,0,.49-.09.93-.27,1.33-.32.7-.87,1.05-1.65,1.05h-1.84v-4.61Z"></path>
        <polygon class="cls-1" points="95.38 24.08 95.38 24.63 93.83 24.63 93.83 28.69 93.19 28.69 93.19 24.63 91.64 24.63 91.64 24.08 95.38 24.08"></polygon>
        <g>
          <path class="cls-1" d="M100.02,28.16c.21,0,.38-.02.51-.07.24-.08.43-.24.58-.47.12-.19.21-.42.26-.71.03-.17.05-.34.05-.48,0-.57-.11-1.01-.33-1.33-.22-.32-.58-.47-1.07-.47h-1.08v3.54h1.09ZM98.3,24.08h1.84c.62,0,1.11.23,1.45.67.31.41.46.93.46,1.56,0,.49-.09.93-.27,1.33-.32.7-.87,1.05-1.65,1.05h-1.84v-4.61Z"></path>
          <path class="cls-1" d="M105.38,22.99h.59v.65h-.59v-.65ZM104.35,22.99h.59v.65h-.59v-.65ZM103.9,24.08v2.85c0,.34.06.61.19.84.19.33.5.5.95.5.53,0,.89-.18,1.09-.54.1-.2.15-.46.15-.79v-2.85h.63v2.59c0,.57-.08,1-.23,1.31-.28.56-.81.83-1.59.83s-1.31-.28-1.59-.83c-.15-.31-.23-.74-.23-1.31v-2.59h.63Z"></path>
          <path class="cls-1" d="M108.6,27.2c.01.26.07.47.18.64.2.31.55.46,1.06.46.22,0,.43-.03.62-.1.36-.13.54-.36.54-.7,0-.25-.08-.43-.23-.54-.15-.1-.39-.2-.72-.27l-.6-.14c-.4-.09-.68-.19-.84-.3-.28-.19-.42-.48-.42-.86,0-.41.14-.75.42-1.02.28-.27.67-.4,1.18-.4.47,0,.87.12,1.2.35.33.23.49.61.49,1.12h-.59c-.03-.25-.09-.44-.19-.57-.18-.24-.49-.36-.93-.36-.35,0-.61.08-.76.23-.15.15-.23.33-.23.54,0,.22.09.39.27.49.12.07.39.15.81.25l.63.15c.3.07.54.17.7.29.28.22.43.53.43.94,0,.51-.18.88-.54,1.1-.36.22-.78.33-1.26.33-.56,0-1-.15-1.31-.44-.32-.29-.47-.68-.46-1.18h.59Z"></path>
          <path class="cls-1" d="M113.21,27.2c.01.26.07.47.18.64.2.31.55.46,1.06.46.22,0,.43-.03.62-.1.36-.13.54-.36.54-.7,0-.25-.08-.43-.23-.54-.15-.1-.39-.2-.72-.27l-.6-.14c-.4-.09-.68-.19-.84-.3-.28-.19-.42-.48-.42-.86,0-.41.14-.75.42-1.02.28-.27.67-.4,1.18-.4.47,0,.87.12,1.2.35.33.23.49.61.49,1.12h-.59c-.03-.25-.09-.44-.19-.57-.18-.24-.49-.36-.93-.36-.35,0-.61.08-.76.23-.15.15-.23.33-.23.54,0,.22.09.39.27.49.12.07.39.15.81.25l.63.15c.3.07.54.17.7.29.28.22.43.53.43.94,0,.51-.18.88-.54,1.1-.36.22-.78.33-1.26.33-.56,0-1-.15-1.31-.44-.32-.29-.47-.68-.46-1.18h.59Z"></path>
        </g>
        <polygon class="cls-1" points="117.47 24.08 120.81 24.08 120.81 24.65 118.07 24.65 118.07 26.05 120.6 26.05 120.6 26.58 118.07 26.58 118.07 28.14 120.86 28.14 120.86 28.69 117.47 28.69 117.47 24.08"></polygon>
        <polygon class="cls-1" points="122.01 24.08 122.64 24.08 122.64 28.14 124.95 28.14 124.95 28.69 122.01 28.69 122.01 24.08"></polygon>
        <g>
          <path class="cls-1" d="M127.66,28.16c.21,0,.38-.02.51-.07.24-.08.43-.24.58-.47.12-.19.21-.42.26-.71.03-.17.05-.34.05-.48,0-.57-.11-1.01-.33-1.33-.22-.32-.58-.47-1.07-.47h-1.08v3.54h1.09ZM125.94,24.08h1.84c.62,0,1.11.23,1.45.67.31.41.46.93.46,1.56,0,.49-.09.93-.27,1.33-.32.7-.87,1.05-1.65,1.05h-1.84v-4.61Z"></path>
          <path class="cls-1" d="M134.12,27.68c.25-.39.37-.85.37-1.36,0-.54-.14-.98-.42-1.31-.28-.33-.67-.5-1.16-.5s-.87.16-1.17.49c-.3.33-.45.81-.45,1.45,0,.51.13.94.39,1.29.26.35.68.53,1.26.53.55,0,.95-.2,1.19-.59M134.67,24.74c.3.41.46.93.46,1.57,0,.69-.18,1.26-.52,1.72-.41.54-.99.8-1.75.8-.71,0-1.27-.24-1.67-.7-.36-.45-.54-1.02-.54-1.71,0-.62.15-1.16.46-1.6.4-.57.99-.85,1.76-.85s1.42.26,1.81.78"></path>
          <path class="cls-1" d="M138.29,26.19c.28,0,.51-.06.68-.18.16-.12.25-.33.25-.63,0-.33-.11-.55-.35-.67-.12-.06-.29-.09-.5-.09h-1.48v1.58h1.4ZM136.27,24.08h2.1c.35,0,.63.05.85.15.42.2.64.56.64,1.09,0,.28-.06.5-.17.68s-.27.32-.48.42c.18.07.32.17.41.29.09.12.14.31.15.58l.02.62c0,.18.02.31.04.39.04.15.1.24.2.28v.1h-.76s-.04-.09-.05-.15c-.01-.06-.02-.18-.03-.36l-.04-.77c-.01-.3-.12-.5-.33-.61-.11-.06-.3-.08-.54-.08h-1.38v1.98h-.62v-4.61Z"></path>
        </g>
        <polygon class="cls-1" points="141.21 24.08 144.41 24.08 144.41 24.65 141.84 24.65 141.84 26.05 144.1 26.05 144.1 26.6 141.84 26.6 141.84 28.69 141.21 28.69 141.21 24.08"></polygon>
        <rect class="cls-4" x="54.23" y="16.13" width="7.7" height="1.7"></rect>
        <rect class="cls-4" x="153.03" y="16.13" width="7.7" height="1.7"></rect>
        <g>
          <path class="cls-5" d="M28.52,13.31h.97l-.44-1.4h-2.98l-.43,1.4h1.02v1.75h-3.68v-1.75h.72l2.64-7.95h2.57l2.59,7.95h.7v1.75h-3.68v-1.75ZM26.57,10.28h1.96l-.99-3.15-.97,3.15Z"></path>
          <path class="cls-5" d="M33.85,5.36h3.72c.44,0,.87.06,1.28.17.41.12.79.28,1.14.49.35.21.67.46.96.75s.53.62.74.98c.2.36.36.74.47,1.16.11.41.17.84.17,1.29s-.06.88-.17,1.29c-.11.41-.27.8-.47,1.16-.2.36-.45.69-.74.99-.29.3-.61.55-.96.76-.35.21-.73.37-1.14.49-.41.12-.83.17-1.28.17h-3.72v-1.75h.77v-6.19h-.77v-1.76ZM36.75,7.12v6.19h.81c.35,0,.67-.08.98-.24s.57-.38.8-.66c.23-.28.4-.61.54-.99.13-.38.2-.78.2-1.22s-.07-.83-.2-1.21c-.13-.38-.31-.7-.54-.98-.23-.28-.49-.49-.8-.65-.31-.16-.63-.24-.98-.24h-.81Z"></path>
          <path class="cls-5" d="M48.62,5.36h4.15v1.76h-.86l-2.59,7.94h-2.62l-2.51-7.94h-.93v-1.76h4.16v1.76h-1.04l1.69,5.5,1.68-5.5h-1.12v-1.76Z"></path>
          <path class="cls-5" d="M54.22,5.36h7.72v3.31h-2.09v-1.38h-2.49v1.91h1.93v1.86h-1.93v2.25h2.49v-1.72h2.09v3.47h-7.72v-1.75h1.02v-6.02h-1.02v-1.93Z"></path>
          <path class="cls-5" d="M69.97,5.36h3.69v1.76h-.79v7.94h-2.12l-4.04-6.27v4.52h.81v1.75h-3.68v-1.75h.8v-6.19h-.79v-1.76h2.93l4.01,6.35v-4.59h-.83v-1.76Z"></path>
          <path class="cls-5" d="M77.35,13.31h1v-6.25h-1.18v1.25h-2.09v-2.95h8.82v2.95h-2.1v-1.25h-1.34v6.25h1.02v1.75h-4.15v-1.75Z"></path>
          <path class="cls-5" d="M85.42,5.36h3.89v1.76h-.89v4.03c0,.37.04.68.12.93.08.26.2.46.35.63s.33.28.53.36.43.11.67.11.48-.03.69-.1.38-.17.53-.33c.15-.16.26-.36.34-.62s.12-.59.12-.98v-4.03h-1.03v-1.76h3.89v1.76h-.77v3.78c0,.68-.1,1.29-.29,1.82-.2.53-.47.98-.81,1.35-.34.37-.75.65-1.21.84-.46.19-.96.29-1.49.29s-1.02-.09-1.47-.28-.85-.46-1.19-.83c-.34-.36-.61-.8-.8-1.32-.2-.52-.29-1.1-.29-1.75v-3.89h-.88v-1.76Z"></path>
          <path class="cls-5" d="M96.2,5.36h5.13c.5,0,.95.07,1.34.22.39.15.72.35.99.6s.47.54.62.87.21.68.21,1.03c0,.33-.04.62-.11.86-.07.25-.17.47-.31.66-.13.19-.3.36-.5.51-.2.15-.42.28-.67.4.22.11.41.28.58.51.17.23.29.52.38.89l.33,1.26h.8v1.89s-2.8,0-2.8,0l-.38-2.3c-.04-.27-.1-.51-.18-.71-.08-.2-.18-.36-.32-.49-.13-.13-.29-.22-.48-.28-.19-.06-.41-.09-.68-.09h-.83v2.11h.89v1.75h-4.02v-1.75h1v-6.19h-1v-1.76ZM99.33,7.12v2.35h1.27c.24,0,.46-.02.66-.07s.36-.11.5-.21c.14-.1.25-.22.32-.36s.11-.32.11-.52c0-.38-.13-.67-.4-.88s-.66-.31-1.18-.31h-1.27Z"></path>
          <path class="cls-5" d="M106.97,5.36h7.72v3.31h-2.09v-1.38h-2.49v1.91h1.93v1.86h-1.93v2.25h2.49v-1.72h2.09v3.47h-7.72v-1.75h1.02v-6.02h-1.02v-1.93Z"></path>
          <path class="cls-5" d="M125.06,8.09c-.02-.15-.07-.29-.16-.42-.08-.13-.19-.25-.32-.34s-.28-.17-.44-.23-.34-.08-.52-.08c-.16,0-.31.02-.45.05-.14.03-.26.09-.37.16-.1.07-.19.16-.25.27s-.09.24-.09.4c0,.19.04.34.12.46.08.11.19.21.32.28.13.07.27.13.43.17.16.04.31.09.46.14l1.76.59c.24.09.47.2.69.35.21.15.4.33.55.54s.28.46.37.74c.09.28.13.59.13.93,0,.47-.09.9-.26,1.29-.17.39-.42.72-.73,1-.31.28-.69.49-1.12.65-.43.15-.92.23-1.45.23-.37,0-.72-.04-1.05-.12-.33-.08-.63-.2-.91-.36-.27-.16-.51-.35-.72-.57s-.36-.47-.48-.75h-.66v-1.93h2.32v.4c0,.19.03.37.09.53.06.16.15.3.28.42s.28.21.47.28.41.1.66.1c.38,0,.68-.09.88-.27.2-.18.3-.42.3-.74,0-.16-.04-.3-.11-.41-.07-.11-.16-.2-.27-.27-.11-.07-.23-.14-.37-.19-.14-.05-.27-.1-.4-.14l-1.47-.47c-.28-.09-.54-.2-.8-.36-.26-.15-.49-.35-.69-.58-.2-.23-.36-.5-.47-.81-.12-.31-.18-.66-.18-1.06,0-.46.09-.87.26-1.23.17-.36.41-.66.72-.91.31-.25.67-.43,1.09-.56.42-.13.89-.19,1.39-.19.4,0,.76.05,1.1.14.34.09.64.21.91.37.27.15.49.33.68.53.19.2.33.4.43.62h.64v1.93h-2.32v-.56Z"></path>
          <path class="cls-5" d="M135.56,8.31c-.24-.34-.45-.58-.65-.73s-.4-.25-.62-.31c-.22-.06-.45-.09-.7-.09-.36,0-.69.08-1,.24-.31.16-.57.38-.8.65-.22.28-.4.6-.53.96-.13.36-.19.75-.19,1.16s.06.8.19,1.17.3.68.52.96c.22.27.49.49.79.65.31.16.64.24,1.01.24.26,0,.49-.04.72-.12.22-.08.42-.19.6-.33s.34-.29.48-.47.24-.36.32-.55l2.06.58c-.13.42-.33.8-.58,1.16s-.56.66-.92.92c-.36.26-.77.46-1.22.61s-.94.22-1.46.22c-.44,0-.86-.06-1.26-.18s-.78-.29-1.12-.51c-.35-.22-.66-.48-.95-.79-.28-.31-.53-.65-.73-1.02-.2-.37-.36-.77-.47-1.2-.11-.43-.17-.88-.17-1.34,0-.7.12-1.35.37-1.95s.58-1.14,1-1.59c.42-.45.92-.81,1.49-1.08s1.18-.39,1.84-.39c.52,0,.97.06,1.32.2s.75.39,1.18.77h1.43v2.16h-1.98Z"></path>
          <path class="cls-5" d="M145.97,5.36h4.16v1.76h-1.02v6.19h1.02v1.75h-4.16v-1.75h1.01v-2.48h-4.38v2.48h1.02v1.75h-4.15v-1.75h1v-6.19h-1v-1.76h4.15v1.76h-1.02v2.02h4.38v-2.02h-1.01v-1.76Z"></path>
          <path class="cls-5" d="M156.61,15.23c-.44,0-.86-.06-1.26-.18s-.78-.29-1.12-.51c-.35-.22-.66-.48-.95-.78-.28-.31-.53-.64-.73-1.02-.2-.37-.36-.77-.47-1.2s-.17-.87-.17-1.34.06-.91.17-1.34c.11-.43.27-.83.47-1.2.2-.37.44-.71.73-1.02.28-.31.6-.57.95-.78.35-.22.72-.39,1.12-.51s.82-.18,1.26-.18.86.06,1.26.18c.4.12.78.29,1.13.51.35.22.66.48.95.78.28.3.53.64.73,1.02.2.37.36.77.47,1.2.11.43.17.88.17,1.34s-.06.91-.17,1.33c-.11.43-.27.83-.47,1.2-.2.37-.45.71-.73,1.02-.28.31-.6.57-.95.78-.35.22-.72.39-1.13.51-.4.12-.82.18-1.26.18ZM156.61,13.23c.37,0,.71-.08,1.02-.24.31-.16.57-.38.8-.65.22-.28.39-.6.52-.96.12-.36.18-.75.18-1.16s-.06-.8-.19-1.17c-.12-.37-.3-.69-.52-.96-.22-.27-.49-.49-.8-.65-.31-.16-.64-.24-1.01-.24s-.7.08-1.01.24c-.31.16-.57.38-.79.65-.22.28-.4.6-.52.96-.13.37-.19.76-.19,1.17s.06.8.19,1.16.3.68.52.96c.22.28.49.49.79.65.31.16.64.24,1.01.24Z"></path>
          <path class="cls-5" d="M167.96,15.23c-.44,0-.86-.06-1.26-.18s-.78-.29-1.12-.51c-.35-.22-.66-.48-.95-.78s-.53-.64-.73-1.02c-.2-.37-.36-.77-.47-1.2s-.17-.87-.17-1.34.06-.91.17-1.34c.11-.43.27-.83.47-1.2.2-.37.44-.71.73-1.02.28-.31.6-.57.95-.78.35-.22.72-.39,1.12-.51s.82-.18,1.26-.18.86.06,1.26.18.78.29,1.13.51c.35.22.66.48.95.78.28.3.53.64.73,1.02.2.37.36.77.47,1.2.11.43.17.88.17,1.34s-.06.91-.17,1.33c-.11.43-.27.83-.47,1.2-.2.37-.45.71-.73,1.02-.28.31-.6.57-.95.78s-.72.39-1.13.51-.82.18-1.26.18ZM167.96,13.23c.37,0,.71-.08,1.02-.24.31-.16.57-.38.8-.65s.39-.6.52-.96c.12-.36.18-.75.18-1.16s-.06-.8-.19-1.17c-.12-.37-.3-.69-.52-.96-.22-.27-.49-.49-.8-.65-.31-.16-.64-.24-1.01-.24s-.7.08-1.01.24c-.31.16-.57.38-.79.65-.22.28-.4.6-.52.96-.13.37-.19.76-.19,1.17s.06.8.19,1.16.3.68.52.96.49.49.79.65c.31.16.64.24,1.01.24Z"></path>
          <path class="cls-5" d="M174.66,5.36h4.15v1.76h-1.02v6.19h2.11c.06,0,.11-.02.16-.05s.1-.07.14-.12c.04-.05.07-.11.1-.17.03-.06.04-.12.04-.17v-1.3h2.07v3.56h-7.76v-1.75h1.01v-6.19h-1.01v-1.76Z"></path>
        </g>
      </g>
      <g>
        <path class="cls-3" d="M207.47,17.52c-1.08,0-1.65-.65-2.03-1.09-.35-.4-.49-.53-.8-.53s-.45.13-.8.53c-.38.43-.95,1.09-2.03,1.09s-1.65-.65-2.03-1.09c-.35-.4-.49-.53-.8-.53s-.45.13-.8.53c-.38.43-.95,1.09-2.03,1.09s-1.65-.65-2.03-1.09c-.35-.4-.49-.53-.8-.53s-.45.13-.8.53c-.38.43-.95,1.09-2.03,1.09s-1.65-.65-2.03-1.09c-.35-.4-.49-.53-.8-.53s-.45.13-.8.53c-.38.43-.95,1.09-2.03,1.09-.45,0-.81-.37-.81-.81s.37-.82.81-.82c.31,0,.45-.13.81-.53.38-.43.95-1.09,2.03-1.09s1.65.65,2.03,1.09c.35.4.49.53.8.53s.45-.13.8-.53c.38-.43.95-1.09,2.03-1.09s1.65.66,2.03,1.09c.35.4.49.53.8.53s.45-.13.8-.53c.38-.43.95-1.09,2.03-1.09s1.65.66,2.03,1.09c.35.4.49.53.8.53s.45-.13.8-.53c.38-.43.95-1.09,2.03-1.09s1.65.66,2.03,1.09c.35.4.49.53.8.53.45,0,.81.37.81.82s-.36.81-.81.81"></path>
        <path class="cls-3" d="M207.47,22.48c-1.08,0-1.65-.65-2.03-1.09-.35-.4-.49-.53-.8-.53s-.45.13-.8.53c-.38.43-.95,1.09-2.03,1.09s-1.65-.65-2.03-1.09c-.35-.4-.49-.53-.8-.53s-.45.13-.8.53c-.38.43-.95,1.09-2.03,1.09s-1.65-.65-2.03-1.09c-.35-.4-.49-.53-.8-.53s-.45.13-.8.53c-.38.43-.95,1.09-2.03,1.09s-1.65-.65-2.03-1.09c-.35-.4-.49-.53-.8-.53s-.45.13-.8.53c-.38.43-.95,1.09-2.03,1.09-.45,0-.81-.37-.81-.81s.37-.82.81-.82c.31,0,.45-.13.81-.53.38-.43.95-1.09,2.03-1.09s1.65.65,2.03,1.09c.35.4.49.53.8.53s.45-.13.8-.53c.38-.43.95-1.09,2.03-1.09s1.65.65,2.03,1.09c.35.4.49.53.8.53s.45-.13.8-.53c.38-.43.95-1.09,2.03-1.09s1.65.65,2.03,1.09c.35.4.49.53.8.53s.45-.13.8-.53c.38-.43.95-1.09,2.03-1.09s1.65.65,2.03,1.09c.35.4.49.53.8.53.45,0,.81.37.81.82s-.36.81-.81.81"></path>
        <path class="cls-3" d="M207.47,27.44c-1.08,0-1.65-.65-2.03-1.09-.35-.4-.49-.53-.8-.53s-.45.13-.8.53c-.38.43-.95,1.09-2.03,1.09s-1.65-.65-2.03-1.09c-.35-.4-.49-.53-.8-.53s-.45.13-.8.53c-.38.43-.95,1.09-2.03,1.09s-1.65-.65-2.03-1.09c-.35-.4-.49-.53-.8-.53s-.45.13-.8.53c-.38.43-.95,1.09-2.03,1.09s-1.65-.65-2.03-1.09c-.35-.4-.49-.53-.8-.53s-.45.13-.8.53c-.38.43-.95,1.09-2.03,1.09-.45,0-.81-.37-.81-.81s.37-.82.81-.82c.31,0,.45-.13.81-.53.38-.43.95-1.09,2.03-1.09s1.65.65,2.03,1.09c.35.4.49.53.8.53s.45-.13.8-.53c.38-.43.95-1.09,2.03-1.09s1.65.66,2.03,1.09c.35.4.49.53.8.53s.45-.13.8-.53c.38-.43.95-1.09,2.03-1.09s1.65.66,2.03,1.09c.35.4.49.53.8.53s.45-.13.8-.53c.38-.43.95-1.09,2.03-1.09s1.65.66,2.03,1.09c.35.4.49.53.8.53.45,0,.81.37.81.82s-.36.81-.81.81"></path>
      </g>
      <g>
        <path class="cls-2" d="M11.73,3.78c-.86.86-2.26.86-3.13,0s-.86-2.26,0-3.13,2.26-.86,3.13,0,.86,2.26,0,3.13"></path>
        <path class="cls-2" d="M15.71,7.76c-.86.86-2.26.86-3.13,0s-.86-2.26,0-3.13,2.26-.86,3.13,0,.86,2.26,0,3.13"></path>
        <path class="cls-2" d="M19.68,11.73c-.86.86-2.26.86-3.13,0s-.86-2.26,0-3.13,2.26-.86,3.13,0,.86,2.26,0,3.13"></path>
        <path class="cls-2" d="M7.74,7.76c-.86.86-2.26.86-3.13,0s-.86-2.26,0-3.13,2.26-.86,3.13,0,.86,2.26,0,3.13"></path>
        <path class="cls-2" d="M11.73,11.73c-.86.86-2.26.86-3.13,0s-.86-2.26,0-3.13,2.26-.86,3.13,0,.86,2.26,0,3.13"></path>
        <path class="cls-2" d="M15.7,15.72c-.86.86-2.26.86-3.13,0s-.86-2.26,0-3.13,2.26-.86,3.13,0,.86,2.26,0,3.13"></path>
        <path class="cls-2" d="M3.78,11.73c-.86.86-2.26.86-3.13,0s-.86-2.26,0-3.13,2.26-.86,3.13,0,.86,2.26,0,3.13"></path>
        <path class="cls-2" d="M7.76,15.71c-.86.86-2.26.86-3.13,0s-.86-2.26,0-3.13,2.26-.86,3.13,0,.86,2.26,0,3.13"></path>
        <path class="cls-2" d="M11.73,19.68c-.86.86-2.26.86-3.13,0s-.86-2.26,0-3.13,2.26-.86,3.13,0,.86,2.26,0,3.13"></path>
      </g>
    </g>
  </g>
</svg>
